<mxfile host="app.diagrams.net" modified="2022-03-31T03:16:15.628Z" agent="5.0 (Windows)" etag="jNu_XSWIwNHiCLT5XF4D" version="17.1.3" type="github" pages="2">
  <diagram id="C5RBs43oDa-KdzZeNtuy" name="Event Registration">
    <mxGraphModel dx="1422" dy="792" grid="1" gridSize="10" guides="1" tooltips="1" connect="1" arrows="1" fold="1" page="1" pageScale="1" pageWidth="1500" pageHeight="1100" math="0" shadow="0">
      <root>
        <mxCell id="WIyWlLk6GJQsqaUBKTNV-0" />
        <mxCell id="WIyWlLk6GJQsqaUBKTNV-1" parent="WIyWlLk6GJQsqaUBKTNV-0" />
        <mxCell id="s0pQWJOe3A9NYIYNYow5-23" value="Pool" style="swimlane;childLayout=stackLayout;resizeParent=1;resizeParentMax=0;startSize=20;" parent="WIyWlLk6GJQsqaUBKTNV-1" vertex="1">
          <mxGeometry x="110" y="50" width="890" height="2060" as="geometry" />
        </mxCell>
        <mxCell id="s0pQWJOe3A9NYIYNYow5-24" value="GPNW.org" style="swimlane;startSize=20;" parent="s0pQWJOe3A9NYIYNYow5-23" vertex="1">
          <mxGeometry y="20" width="430" height="2040" as="geometry" />
        </mxCell>
        <mxCell id="s0pQWJOe3A9NYIYNYow5-3" value="Yes" style="endArrow=classic;html=1;rounded=0;" parent="s0pQWJOe3A9NYIYNYow5-24" source="t--mVeKD4P2bNnT3wvfB-0" target="s0pQWJOe3A9NYIYNYow5-1" edge="1">
          <mxGeometry width="50" height="50" relative="1" as="geometry">
            <mxPoint x="215" y="301" as="sourcePoint" />
            <mxPoint x="240" y="531" as="targetPoint" />
          </mxGeometry>
        </mxCell>
        <mxCell id="s0pQWJOe3A9NYIYNYow5-1" value="&lt;div&gt;Fill out registration form&lt;/div&gt;" style="rounded=1;whiteSpace=wrap;html=1;" parent="s0pQWJOe3A9NYIYNYow5-24" vertex="1">
          <mxGeometry x="155" y="366" width="120" height="60" as="geometry" />
        </mxCell>
        <mxCell id="s0pQWJOe3A9NYIYNYow5-9" value="Collect discord name" style="rounded=1;whiteSpace=wrap;html=1;" parent="s0pQWJOe3A9NYIYNYow5-24" vertex="1">
          <mxGeometry x="155" y="501" width="120" height="60" as="geometry" />
        </mxCell>
        <mxCell id="s0pQWJOe3A9NYIYNYow5-10" style="edgeStyle=orthogonalEdgeStyle;rounded=0;orthogonalLoop=1;jettySize=auto;html=1;" parent="s0pQWJOe3A9NYIYNYow5-24" source="s0pQWJOe3A9NYIYNYow5-1" target="s0pQWJOe3A9NYIYNYow5-9" edge="1">
          <mxGeometry relative="1" as="geometry" />
        </mxCell>
        <mxCell id="s0pQWJOe3A9NYIYNYow5-11" value="Discord name provided?" style="rhombus;whiteSpace=wrap;html=1;" parent="s0pQWJOe3A9NYIYNYow5-24" vertex="1">
          <mxGeometry x="175" y="611" width="80" height="80" as="geometry" />
        </mxCell>
        <mxCell id="s0pQWJOe3A9NYIYNYow5-17" style="edgeStyle=orthogonalEdgeStyle;rounded=0;orthogonalLoop=1;jettySize=auto;html=1;" parent="s0pQWJOe3A9NYIYNYow5-24" source="s0pQWJOe3A9NYIYNYow5-9" target="s0pQWJOe3A9NYIYNYow5-11" edge="1">
          <mxGeometry relative="1" as="geometry" />
        </mxCell>
        <mxCell id="s0pQWJOe3A9NYIYNYow5-8" value="&lt;div&gt;Validate Discord name&lt;/div&gt;" style="rounded=1;whiteSpace=wrap;html=1;" parent="s0pQWJOe3A9NYIYNYow5-24" vertex="1">
          <mxGeometry x="155" y="731" width="120" height="60" as="geometry" />
        </mxCell>
        <mxCell id="s0pQWJOe3A9NYIYNYow5-12" value="&lt;div&gt;Yes&lt;/div&gt;" style="edgeStyle=orthogonalEdgeStyle;rounded=0;orthogonalLoop=1;jettySize=auto;html=1;" parent="s0pQWJOe3A9NYIYNYow5-24" source="s0pQWJOe3A9NYIYNYow5-11" target="s0pQWJOe3A9NYIYNYow5-8" edge="1">
          <mxGeometry relative="1" as="geometry" />
        </mxCell>
        <mxCell id="s0pQWJOe3A9NYIYNYow5-14" value="END" style="ellipse;whiteSpace=wrap;html=1;aspect=fixed;" parent="s0pQWJOe3A9NYIYNYow5-24" vertex="1">
          <mxGeometry x="20" y="611" width="80" height="80" as="geometry" />
        </mxCell>
        <mxCell id="s0pQWJOe3A9NYIYNYow5-15" value="No" style="edgeStyle=orthogonalEdgeStyle;rounded=0;orthogonalLoop=1;jettySize=auto;html=1;exitX=0;exitY=0.5;exitDx=0;exitDy=0;" parent="s0pQWJOe3A9NYIYNYow5-24" source="s0pQWJOe3A9NYIYNYow5-11" target="s0pQWJOe3A9NYIYNYow5-14" edge="1">
          <mxGeometry relative="1" as="geometry" />
        </mxCell>
        <mxCell id="s0pQWJOe3A9NYIYNYow5-19" value="Click purchase link" style="rounded=1;whiteSpace=wrap;html=1;" parent="s0pQWJOe3A9NYIYNYow5-24" vertex="1">
          <mxGeometry x="155" y="971" width="120" height="60" as="geometry" />
        </mxCell>
        <mxCell id="s0pQWJOe3A9NYIYNYow5-22" value="&lt;div&gt;No&lt;/div&gt;" style="edgeStyle=orthogonalEdgeStyle;rounded=0;orthogonalLoop=1;jettySize=auto;html=1;" parent="s0pQWJOe3A9NYIYNYow5-24" source="s0pQWJOe3A9NYIYNYow5-18" target="s0pQWJOe3A9NYIYNYow5-14" edge="1">
          <mxGeometry relative="1" as="geometry">
            <Array as="points">
              <mxPoint x="60" y="881" />
            </Array>
          </mxGeometry>
        </mxCell>
        <mxCell id="s0pQWJOe3A9NYIYNYow5-18" value="Discord name valid?" style="rhombus;whiteSpace=wrap;html=1;" parent="s0pQWJOe3A9NYIYNYow5-24" vertex="1">
          <mxGeometry x="175" y="841" width="80" height="80" as="geometry" />
        </mxCell>
        <mxCell id="s0pQWJOe3A9NYIYNYow5-20" style="edgeStyle=orthogonalEdgeStyle;rounded=0;orthogonalLoop=1;jettySize=auto;html=1;" parent="s0pQWJOe3A9NYIYNYow5-24" source="s0pQWJOe3A9NYIYNYow5-8" target="s0pQWJOe3A9NYIYNYow5-18" edge="1">
          <mxGeometry relative="1" as="geometry" />
        </mxCell>
        <mxCell id="s0pQWJOe3A9NYIYNYow5-21" value="&lt;div&gt;Yes&lt;/div&gt;" style="edgeStyle=orthogonalEdgeStyle;rounded=0;orthogonalLoop=1;jettySize=auto;html=1;" parent="s0pQWJOe3A9NYIYNYow5-24" source="s0pQWJOe3A9NYIYNYow5-18" target="s0pQWJOe3A9NYIYNYow5-19" edge="1">
          <mxGeometry relative="1" as="geometry" />
        </mxCell>
        <mxCell id="t--mVeKD4P2bNnT3wvfB-3" style="edgeStyle=orthogonalEdgeStyle;rounded=0;orthogonalLoop=1;jettySize=auto;html=1;" edge="1" parent="s0pQWJOe3A9NYIYNYow5-24" source="s0pQWJOe3A9NYIYNYow5-0" target="t--mVeKD4P2bNnT3wvfB-0">
          <mxGeometry relative="1" as="geometry" />
        </mxCell>
        <mxCell id="s0pQWJOe3A9NYIYNYow5-0" value="&lt;div&gt;Click registration link&lt;/div&gt;" style="rounded=1;whiteSpace=wrap;html=1;" parent="s0pQWJOe3A9NYIYNYow5-24" vertex="1">
          <mxGeometry x="155" y="55" width="120" height="60" as="geometry" />
        </mxCell>
        <mxCell id="cuYothWAb6MuNWbnh6e8-23" value="" style="edgeStyle=orthogonalEdgeStyle;rounded=0;orthogonalLoop=1;jettySize=auto;html=1;endArrow=block;endFill=1;" parent="s0pQWJOe3A9NYIYNYow5-24" source="cuYothWAb6MuNWbnh6e8-20" target="cuYothWAb6MuNWbnh6e8-22" edge="1">
          <mxGeometry relative="1" as="geometry" />
        </mxCell>
        <mxCell id="cuYothWAb6MuNWbnh6e8-20" value="Event Registration Details Sent back to Go Play Website" style="rounded=1;whiteSpace=wrap;html=1;" parent="s0pQWJOe3A9NYIYNYow5-24" vertex="1">
          <mxGeometry x="135" y="1656" width="120" height="60" as="geometry" />
        </mxCell>
        <mxCell id="Wr3TSwwPW5u1GoS7rXo6-1" style="edgeStyle=orthogonalEdgeStyle;rounded=0;orthogonalLoop=1;jettySize=auto;html=1;" parent="s0pQWJOe3A9NYIYNYow5-24" source="cuYothWAb6MuNWbnh6e8-22" target="Wr3TSwwPW5u1GoS7rXo6-0" edge="1">
          <mxGeometry relative="1" as="geometry" />
        </mxCell>
        <mxCell id="cuYothWAb6MuNWbnh6e8-22" value="Update User account with appropriate roles" style="whiteSpace=wrap;html=1;rounded=1;" parent="s0pQWJOe3A9NYIYNYow5-24" vertex="1">
          <mxGeometry x="135" y="1796" width="120" height="60" as="geometry" />
        </mxCell>
        <mxCell id="Wr3TSwwPW5u1GoS7rXo6-0" value="END" style="ellipse;whiteSpace=wrap;html=1;aspect=fixed;" parent="s0pQWJOe3A9NYIYNYow5-24" vertex="1">
          <mxGeometry x="155" y="1916" width="80" height="80" as="geometry" />
        </mxCell>
        <mxCell id="t--mVeKD4P2bNnT3wvfB-2" value="No" style="edgeStyle=orthogonalEdgeStyle;rounded=0;orthogonalLoop=1;jettySize=auto;html=1;" edge="1" parent="s0pQWJOe3A9NYIYNYow5-24" source="t--mVeKD4P2bNnT3wvfB-0" target="t--mVeKD4P2bNnT3wvfB-1">
          <mxGeometry relative="1" as="geometry" />
        </mxCell>
        <mxCell id="t--mVeKD4P2bNnT3wvfB-0" value="Does user have WP account?" style="rhombus;whiteSpace=wrap;html=1;" vertex="1" parent="s0pQWJOe3A9NYIYNYow5-24">
          <mxGeometry x="175" y="170" width="80" height="80" as="geometry" />
        </mxCell>
        <mxCell id="t--mVeKD4P2bNnT3wvfB-4" style="edgeStyle=orthogonalEdgeStyle;rounded=0;orthogonalLoop=1;jettySize=auto;html=1;" edge="1" parent="s0pQWJOe3A9NYIYNYow5-24" source="t--mVeKD4P2bNnT3wvfB-1" target="s0pQWJOe3A9NYIYNYow5-14">
          <mxGeometry relative="1" as="geometry" />
        </mxCell>
        <mxCell id="t--mVeKD4P2bNnT3wvfB-1" value="Create WP account first" style="ellipse;whiteSpace=wrap;html=1;aspect=fixed;" vertex="1" parent="s0pQWJOe3A9NYIYNYow5-24">
          <mxGeometry x="20" y="170" width="80" height="80" as="geometry" />
        </mxCell>
        <mxCell id="s0pQWJOe3A9NYIYNYow5-25" value="Eventbrite" style="swimlane;startSize=20;" parent="s0pQWJOe3A9NYIYNYow5-23" vertex="1">
          <mxGeometry x="430" y="20" width="460" height="2040" as="geometry" />
        </mxCell>
        <mxCell id="cuYothWAb6MuNWbnh6e8-2" value="" style="edgeStyle=orthogonalEdgeStyle;rounded=0;orthogonalLoop=1;jettySize=auto;html=1;" parent="s0pQWJOe3A9NYIYNYow5-25" source="s0pQWJOe3A9NYIYNYow5-28" target="cuYothWAb6MuNWbnh6e8-1" edge="1">
          <mxGeometry relative="1" as="geometry" />
        </mxCell>
        <mxCell id="s0pQWJOe3A9NYIYNYow5-28" value="Select Ticket Options" style="rounded=1;whiteSpace=wrap;html=1;" parent="s0pQWJOe3A9NYIYNYow5-25" vertex="1">
          <mxGeometry x="140" y="971" width="120" height="60" as="geometry" />
        </mxCell>
        <mxCell id="cuYothWAb6MuNWbnh6e8-6" value="" style="edgeStyle=orthogonalEdgeStyle;rounded=0;orthogonalLoop=1;jettySize=auto;html=1;" parent="s0pQWJOe3A9NYIYNYow5-25" source="cuYothWAb6MuNWbnh6e8-1" target="cuYothWAb6MuNWbnh6e8-5" edge="1">
          <mxGeometry relative="1" as="geometry" />
        </mxCell>
        <mxCell id="cuYothWAb6MuNWbnh6e8-1" value="Enter Contact Details" style="whiteSpace=wrap;html=1;rounded=1;" parent="s0pQWJOe3A9NYIYNYow5-25" vertex="1">
          <mxGeometry x="140" y="1111" width="120" height="60" as="geometry" />
        </mxCell>
        <mxCell id="cuYothWAb6MuNWbnh6e8-10" value="" style="edgeStyle=orthogonalEdgeStyle;rounded=0;orthogonalLoop=1;jettySize=auto;html=1;endArrow=block;endFill=1;" parent="s0pQWJOe3A9NYIYNYow5-25" source="cuYothWAb6MuNWbnh6e8-5" target="cuYothWAb6MuNWbnh6e8-9" edge="1">
          <mxGeometry relative="1" as="geometry" />
        </mxCell>
        <mxCell id="cuYothWAb6MuNWbnh6e8-5" value="Enter payment method" style="whiteSpace=wrap;html=1;rounded=1;" parent="s0pQWJOe3A9NYIYNYow5-25" vertex="1">
          <mxGeometry x="140" y="1206" width="120" height="60" as="geometry" />
        </mxCell>
        <mxCell id="cuYothWAb6MuNWbnh6e8-8" value="" style="edgeStyle=orthogonalEdgeStyle;rounded=0;orthogonalLoop=1;jettySize=auto;html=1;endArrow=none;endFill=0;dashed=1;" parent="s0pQWJOe3A9NYIYNYow5-25" source="cuYothWAb6MuNWbnh6e8-7" target="cuYothWAb6MuNWbnh6e8-1" edge="1">
          <mxGeometry relative="1" as="geometry" />
        </mxCell>
        <mxCell id="cuYothWAb6MuNWbnh6e8-7" value="What are these?" style="whiteSpace=wrap;html=1;shape=mxgraph.basic.rectCallout;dx=35.56;dy=10;boundedLbl=1;" parent="s0pQWJOe3A9NYIYNYow5-25" vertex="1">
          <mxGeometry x="340" y="1066" width="100" height="60" as="geometry" />
        </mxCell>
        <mxCell id="cuYothWAb6MuNWbnh6e8-12" value="" style="edgeStyle=orthogonalEdgeStyle;rounded=0;orthogonalLoop=1;jettySize=auto;html=1;endArrow=block;endFill=1;" parent="s0pQWJOe3A9NYIYNYow5-25" source="cuYothWAb6MuNWbnh6e8-9" target="cuYothWAb6MuNWbnh6e8-11" edge="1">
          <mxGeometry relative="1" as="geometry" />
        </mxCell>
        <mxCell id="cuYothWAb6MuNWbnh6e8-9" value="Place Order" style="whiteSpace=wrap;html=1;rounded=1;" parent="s0pQWJOe3A9NYIYNYow5-25" vertex="1">
          <mxGeometry x="140" y="1306" width="120" height="60" as="geometry" />
        </mxCell>
        <mxCell id="cuYothWAb6MuNWbnh6e8-14" value="" style="edgeStyle=orthogonalEdgeStyle;rounded=0;orthogonalLoop=1;jettySize=auto;html=1;endArrow=block;endFill=1;" parent="s0pQWJOe3A9NYIYNYow5-25" source="cuYothWAb6MuNWbnh6e8-11" target="cuYothWAb6MuNWbnh6e8-13" edge="1">
          <mxGeometry relative="1" as="geometry" />
        </mxCell>
        <mxCell id="cuYothWAb6MuNWbnh6e8-11" value="Process Order" style="whiteSpace=wrap;html=1;rounded=1;" parent="s0pQWJOe3A9NYIYNYow5-25" vertex="1">
          <mxGeometry x="140" y="1396" width="120" height="60" as="geometry" />
        </mxCell>
        <mxCell id="cuYothWAb6MuNWbnh6e8-16" value="" style="edgeStyle=orthogonalEdgeStyle;rounded=0;orthogonalLoop=1;jettySize=auto;html=1;endArrow=block;endFill=1;" parent="s0pQWJOe3A9NYIYNYow5-25" source="cuYothWAb6MuNWbnh6e8-13" target="cuYothWAb6MuNWbnh6e8-15" edge="1">
          <mxGeometry relative="1" as="geometry" />
        </mxCell>
        <mxCell id="cuYothWAb6MuNWbnh6e8-17" value="No" style="edgeLabel;html=1;align=center;verticalAlign=middle;resizable=0;points=[];" parent="cuYothWAb6MuNWbnh6e8-16" connectable="0" vertex="1">
          <mxGeometry x="-0.0641" relative="1" as="geometry">
            <mxPoint as="offset" />
          </mxGeometry>
        </mxCell>
        <mxCell id="cuYothWAb6MuNWbnh6e8-19" value="" style="edgeStyle=orthogonalEdgeStyle;rounded=0;orthogonalLoop=1;jettySize=auto;html=1;endArrow=block;endFill=1;" parent="s0pQWJOe3A9NYIYNYow5-25" source="cuYothWAb6MuNWbnh6e8-13" target="cuYothWAb6MuNWbnh6e8-18" edge="1">
          <mxGeometry relative="1" as="geometry" />
        </mxCell>
        <mxCell id="cuYothWAb6MuNWbnh6e8-13" value="Success?" style="rhombus;whiteSpace=wrap;html=1;rounded=1;" parent="s0pQWJOe3A9NYIYNYow5-25" vertex="1">
          <mxGeometry x="160" y="1526" width="80" height="80" as="geometry" />
        </mxCell>
        <mxCell id="cuYothWAb6MuNWbnh6e8-15" value="Eventbrite error handling?" style="whiteSpace=wrap;html=1;rounded=1;" parent="s0pQWJOe3A9NYIYNYow5-25" vertex="1">
          <mxGeometry x="300" y="1536" width="120" height="60" as="geometry" />
        </mxCell>
        <mxCell id="cuYothWAb6MuNWbnh6e8-18" value="Order Confirmation" style="whiteSpace=wrap;html=1;rounded=1;" parent="s0pQWJOe3A9NYIYNYow5-25" vertex="1">
          <mxGeometry x="140" y="1656" width="120" height="60" as="geometry" />
        </mxCell>
        <mxCell id="cuYothWAb6MuNWbnh6e8-26" value="How do they get back to the website? If embeded already on site...if Eventbrite, would need a link." style="whiteSpace=wrap;html=1;shape=mxgraph.basic.rectCallout;dx=35.56;dy=10;boundedLbl=1;" parent="s0pQWJOe3A9NYIYNYow5-25" vertex="1">
          <mxGeometry x="285" y="1636" width="150" height="120" as="geometry" />
        </mxCell>
        <mxCell id="cuYothWAb6MuNWbnh6e8-0" style="edgeStyle=orthogonalEdgeStyle;rounded=0;orthogonalLoop=1;jettySize=auto;html=1;exitX=1;exitY=0.5;exitDx=0;exitDy=0;entryX=0;entryY=0.5;entryDx=0;entryDy=0;" parent="s0pQWJOe3A9NYIYNYow5-23" source="s0pQWJOe3A9NYIYNYow5-19" target="s0pQWJOe3A9NYIYNYow5-28" edge="1">
          <mxGeometry relative="1" as="geometry" />
        </mxCell>
        <mxCell id="cuYothWAb6MuNWbnh6e8-21" value="" style="edgeStyle=orthogonalEdgeStyle;rounded=0;orthogonalLoop=1;jettySize=auto;html=1;endArrow=block;endFill=1;" parent="s0pQWJOe3A9NYIYNYow5-23" source="cuYothWAb6MuNWbnh6e8-18" target="cuYothWAb6MuNWbnh6e8-20" edge="1">
          <mxGeometry relative="1" as="geometry" />
        </mxCell>
      </root>
    </mxGraphModel>
  </diagram>
  <diagram id="c2CF_wFW82YlwqupZcvn" name="Shedule a Game">
    <mxGraphModel dx="1422" dy="792" grid="1" gridSize="10" guides="1" tooltips="1" connect="1" arrows="1" fold="1" page="1" pageScale="1" pageWidth="1500" pageHeight="1100" math="0" shadow="0">
      <root>
        <mxCell id="bplon78fEs0VXEiEB44Z-0" />
        <mxCell id="bplon78fEs0VXEiEB44Z-1" parent="bplon78fEs0VXEiEB44Z-0" />
        <mxCell id="bplon78fEs0VXEiEB44Z-3" value="Pool" style="swimlane;childLayout=stackLayout;resizeParent=1;resizeParentMax=0;startSize=20;" parent="bplon78fEs0VXEiEB44Z-1" vertex="1">
          <mxGeometry x="60" y="140" width="1190" height="3290" as="geometry" />
        </mxCell>
        <mxCell id="bplon78fEs0VXEiEB44Z-4" value="GM Actions" style="swimlane;startSize=20;" parent="bplon78fEs0VXEiEB44Z-3" vertex="1">
          <mxGeometry y="20" width="580" height="3270" as="geometry" />
        </mxCell>
        <mxCell id="bplon78fEs0VXEiEB44Z-15" style="edgeStyle=orthogonalEdgeStyle;rounded=0;orthogonalLoop=1;jettySize=auto;html=1;" parent="bplon78fEs0VXEiEB44Z-4" source="bplon78fEs0VXEiEB44Z-8" target="bplon78fEs0VXEiEB44Z-11" edge="1">
          <mxGeometry relative="1" as="geometry" />
        </mxCell>
        <mxCell id="bplon78fEs0VXEiEB44Z-8" value="&lt;div&gt;User Logs In&lt;/div&gt;" style="rounded=1;whiteSpace=wrap;html=1;" parent="bplon78fEs0VXEiEB44Z-4" vertex="1">
          <mxGeometry x="190" y="90" width="120" height="60" as="geometry" />
        </mxCell>
        <mxCell id="bplon78fEs0VXEiEB44Z-58" style="edgeStyle=orthogonalEdgeStyle;rounded=0;orthogonalLoop=1;jettySize=auto;html=1;" parent="bplon78fEs0VXEiEB44Z-4" source="bplon78fEs0VXEiEB44Z-9" target="bplon78fEs0VXEiEB44Z-16" edge="1">
          <mxGeometry relative="1" as="geometry">
            <Array as="points">
              <mxPoint x="380" y="560" />
            </Array>
          </mxGeometry>
        </mxCell>
        <mxCell id="bplon78fEs0VXEiEB44Z-9" value="Click on Register Game" style="rounded=1;whiteSpace=wrap;html=1;" parent="bplon78fEs0VXEiEB44Z-4" vertex="1">
          <mxGeometry x="190" y="530" width="120" height="60" as="geometry" />
        </mxCell>
        <mxCell id="bplon78fEs0VXEiEB44Z-13" value="Yes" style="edgeStyle=orthogonalEdgeStyle;rounded=0;orthogonalLoop=1;jettySize=auto;html=1;" parent="bplon78fEs0VXEiEB44Z-4" source="bplon78fEs0VXEiEB44Z-11" target="bplon78fEs0VXEiEB44Z-61" edge="1">
          <mxGeometry relative="1" as="geometry" />
        </mxCell>
        <mxCell id="bplon78fEs0VXEiEB44Z-14" value="No" style="edgeStyle=orthogonalEdgeStyle;rounded=0;orthogonalLoop=1;jettySize=auto;html=1;entryX=1;entryY=0.5;entryDx=0;entryDy=0;" parent="bplon78fEs0VXEiEB44Z-4" source="bplon78fEs0VXEiEB44Z-11" target="bplon78fEs0VXEiEB44Z-12" edge="1">
          <mxGeometry relative="1" as="geometry" />
        </mxCell>
        <mxCell id="bplon78fEs0VXEiEB44Z-11" value="&lt;div&gt;User has Attendee Role for event?&lt;/div&gt;" style="rhombus;whiteSpace=wrap;html=1;" parent="bplon78fEs0VXEiEB44Z-4" vertex="1">
          <mxGeometry x="200" y="210" width="100" height="100" as="geometry" />
        </mxCell>
        <mxCell id="bplon78fEs0VXEiEB44Z-12" value="END" style="ellipse;whiteSpace=wrap;html=1;aspect=fixed;" parent="bplon78fEs0VXEiEB44Z-4" vertex="1">
          <mxGeometry x="40" y="220" width="80" height="80" as="geometry" />
        </mxCell>
        <mxCell id="bplon78fEs0VXEiEB44Z-59" value="" style="group" parent="bplon78fEs0VXEiEB44Z-4" vertex="1" connectable="0">
          <mxGeometry x="37.5" y="720" width="425" height="650" as="geometry" />
        </mxCell>
        <mxCell id="bplon78fEs0VXEiEB44Z-16" value="&lt;br&gt;&lt;br&gt;&lt;br&gt;&lt;br&gt;&lt;div&gt;&lt;br&gt;&lt;/div&gt;&lt;div&gt;&lt;br&gt;&lt;/div&gt;&lt;div&gt;Collect game information&lt;/div&gt;" style="rounded=1;whiteSpace=wrap;html=1;labelPosition=center;verticalLabelPosition=top;align=center;verticalAlign=bottom;" parent="bplon78fEs0VXEiEB44Z-59" vertex="1">
          <mxGeometry width="425" height="650" as="geometry" />
        </mxCell>
        <mxCell id="bplon78fEs0VXEiEB44Z-57" value="Fields" style="swimlane;startSize=23;" parent="bplon78fEs0VXEiEB44Z-59" vertex="1">
          <mxGeometry x="61.39" y="40" width="321.11" height="550" as="geometry" />
        </mxCell>
        <mxCell id="bplon78fEs0VXEiEB44Z-17" value="Title" style="rounded=0;whiteSpace=wrap;html=1;" parent="bplon78fEs0VXEiEB44Z-57" vertex="1">
          <mxGeometry x="18.88888888888889" y="40" width="66.11111111111111" height="40" as="geometry" />
        </mxCell>
        <mxCell id="bplon78fEs0VXEiEB44Z-19" value="Min Players" style="rounded=0;whiteSpace=wrap;html=1;" parent="bplon78fEs0VXEiEB44Z-57" vertex="1">
          <mxGeometry x="18.88888888888889" y="110" width="75.55555555555556" height="40" as="geometry" />
        </mxCell>
        <mxCell id="bplon78fEs0VXEiEB44Z-20" value="Max Players" style="rounded=0;whiteSpace=wrap;html=1;" parent="bplon78fEs0VXEiEB44Z-57" vertex="1">
          <mxGeometry x="9.444444444444445" y="170" width="85" height="40" as="geometry" />
        </mxCell>
        <mxCell id="bplon78fEs0VXEiEB44Z-21" value="&lt;div&gt;Duration&lt;/div&gt;" style="rounded=0;whiteSpace=wrap;html=1;" parent="bplon78fEs0VXEiEB44Z-57" vertex="1">
          <mxGeometry x="14.166666666666666" y="300" width="85" height="40" as="geometry" />
        </mxCell>
        <mxCell id="bplon78fEs0VXEiEB44Z-45" value="Accessability" style="rounded=0;whiteSpace=wrap;html=1;" parent="bplon78fEs0VXEiEB44Z-57" vertex="1">
          <mxGeometry x="18.88888888888889" y="430" width="85" height="40" as="geometry" />
        </mxCell>
        <mxCell id="bplon78fEs0VXEiEB44Z-42" value="Playtest?" style="rounded=0;whiteSpace=wrap;html=1;" parent="bplon78fEs0VXEiEB44Z-57" vertex="1">
          <mxGeometry x="170" y="40" width="85" height="40" as="geometry" />
        </mxCell>
        <mxCell id="bplon78fEs0VXEiEB44Z-25" value="Content Warnings" style="rounded=0;whiteSpace=wrap;html=1;" parent="bplon78fEs0VXEiEB44Z-57" vertex="1">
          <mxGeometry x="14.168888888888915" y="370" width="85" height="40" as="geometry" />
        </mxCell>
        <mxCell id="bplon78fEs0VXEiEB44Z-50" value="Tags" style="swimlane;" parent="bplon78fEs0VXEiEB44Z-59" vertex="1">
          <mxGeometry x="202.5011111111111" y="290" width="141.66666666666666" height="260" as="geometry" />
        </mxCell>
        <mxCell id="bplon78fEs0VXEiEB44Z-46" value="Genre" style="rounded=0;whiteSpace=wrap;html=1;" parent="bplon78fEs0VXEiEB44Z-50" vertex="1">
          <mxGeometry x="28.333333333333332" y="40" width="85" height="40" as="geometry" />
        </mxCell>
        <mxCell id="bplon78fEs0VXEiEB44Z-47" value="System" style="rounded=0;whiteSpace=wrap;html=1;" parent="bplon78fEs0VXEiEB44Z-50" vertex="1">
          <mxGeometry x="28.333333333333332" y="95" width="85" height="40" as="geometry" />
        </mxCell>
        <mxCell id="bplon78fEs0VXEiEB44Z-48" value="Mechanical Descriptors" style="rounded=0;whiteSpace=wrap;html=1;" parent="bplon78fEs0VXEiEB44Z-50" vertex="1">
          <mxGeometry x="28.333333333333332" y="150" width="85" height="40" as="geometry" />
        </mxCell>
        <mxCell id="bplon78fEs0VXEiEB44Z-49" value="Additional Descriptors" style="rounded=0;whiteSpace=wrap;html=1;" parent="bplon78fEs0VXEiEB44Z-50" vertex="1">
          <mxGeometry x="28.333333333333332" y="210" width="85" height="40" as="geometry" />
        </mxCell>
        <mxCell id="bplon78fEs0VXEiEB44Z-43" value="Image" style="rounded=0;whiteSpace=wrap;html=1;" parent="bplon78fEs0VXEiEB44Z-59" vertex="1">
          <mxGeometry x="230.83444444444442" y="140" width="85" height="40" as="geometry" />
        </mxCell>
        <mxCell id="bplon78fEs0VXEiEB44Z-22" value="&lt;div&gt;Descripiton&lt;/div&gt;" style="rounded=0;whiteSpace=wrap;html=1;" parent="bplon78fEs0VXEiEB44Z-59" vertex="1">
          <mxGeometry x="70.83444444444443" y="270" width="85" height="40" as="geometry" />
        </mxCell>
        <mxCell id="bplon78fEs0VXEiEB44Z-62" style="edgeStyle=orthogonalEdgeStyle;rounded=0;orthogonalLoop=1;jettySize=auto;html=1;" parent="bplon78fEs0VXEiEB44Z-4" source="bplon78fEs0VXEiEB44Z-61" target="bplon78fEs0VXEiEB44Z-9" edge="1">
          <mxGeometry relative="1" as="geometry" />
        </mxCell>
        <mxCell id="bplon78fEs0VXEiEB44Z-61" value="Collect GM/Facilitator contact info (for coordination)" style="rounded=1;whiteSpace=wrap;html=1;" parent="bplon78fEs0VXEiEB44Z-4" vertex="1">
          <mxGeometry x="170" y="390" width="160" height="80" as="geometry" />
        </mxCell>
        <mxCell id="bplon78fEs0VXEiEB44Z-63" value="Are we doing this here?" style="shape=callout;whiteSpace=wrap;html=1;perimeter=calloutPerimeter;position2=0;" parent="bplon78fEs0VXEiEB44Z-4" vertex="1">
          <mxGeometry x="330" y="320" width="120" height="80" as="geometry" />
        </mxCell>
        <mxCell id="bplon78fEs0VXEiEB44Z-64" value="User submits form" style="rounded=1;whiteSpace=wrap;html=1;" parent="bplon78fEs0VXEiEB44Z-4" vertex="1">
          <mxGeometry x="190" y="1590" width="120" height="60" as="geometry" />
        </mxCell>
        <mxCell id="bplon78fEs0VXEiEB44Z-65" style="edgeStyle=orthogonalEdgeStyle;rounded=0;orthogonalLoop=1;jettySize=auto;html=1;" parent="bplon78fEs0VXEiEB44Z-4" source="bplon78fEs0VXEiEB44Z-16" target="bplon78fEs0VXEiEB44Z-85" edge="1">
          <mxGeometry relative="1" as="geometry" />
        </mxCell>
        <mxCell id="bplon78fEs0VXEiEB44Z-86" style="edgeStyle=orthogonalEdgeStyle;rounded=0;orthogonalLoop=1;jettySize=auto;html=1;" parent="bplon78fEs0VXEiEB44Z-4" source="bplon78fEs0VXEiEB44Z-85" target="bplon78fEs0VXEiEB44Z-64" edge="1">
          <mxGeometry relative="1" as="geometry" />
        </mxCell>
        <mxCell id="bplon78fEs0VXEiEB44Z-85" value="User selects session preference (time slot)" style="rounded=1;whiteSpace=wrap;html=1;" parent="bplon78fEs0VXEiEB44Z-4" vertex="1">
          <mxGeometry x="180" y="1440" width="140" height="80" as="geometry" />
        </mxCell>
        <mxCell id="bplon78fEs0VXEiEB44Z-5" value="Lane 2" style="swimlane;startSize=20;" parent="bplon78fEs0VXEiEB44Z-3" vertex="1">
          <mxGeometry x="580" y="20" width="610" height="3270" as="geometry" />
        </mxCell>
        <mxCell id="bplon78fEs0VXEiEB44Z-89" value="Some time &lt;br&gt;passes..." style="ellipse;shape=cloud;whiteSpace=wrap;html=1;" parent="bplon78fEs0VXEiEB44Z-5" vertex="1">
          <mxGeometry x="250" y="1580" width="120" height="80" as="geometry" />
        </mxCell>
        <mxCell id="bplon78fEs0VXEiEB44Z-94" value="Game Vetting" style="swimlane;horizontal=0;" parent="bplon78fEs0VXEiEB44Z-5" vertex="1">
          <mxGeometry x="30" y="1710" width="530" height="740" as="geometry" />
        </mxCell>
        <mxCell id="bplon78fEs0VXEiEB44Z-115" style="edgeStyle=orthogonalEdgeStyle;rounded=0;orthogonalLoop=1;jettySize=auto;html=1;" parent="bplon78fEs0VXEiEB44Z-94" source="bplon78fEs0VXEiEB44Z-105" target="bplon78fEs0VXEiEB44Z-107" edge="1">
          <mxGeometry relative="1" as="geometry" />
        </mxCell>
        <mxCell id="bplon78fEs0VXEiEB44Z-117" value="Yes" style="edgeStyle=orthogonalEdgeStyle;rounded=0;orthogonalLoop=1;jettySize=auto;html=1;" parent="bplon78fEs0VXEiEB44Z-94" source="bplon78fEs0VXEiEB44Z-105" target="bplon78fEs0VXEiEB44Z-108" edge="1">
          <mxGeometry relative="1" as="geometry" />
        </mxCell>
        <mxCell id="bplon78fEs0VXEiEB44Z-123" value="No" style="edgeStyle=orthogonalEdgeStyle;rounded=0;orthogonalLoop=1;jettySize=auto;html=1;" parent="bplon78fEs0VXEiEB44Z-94" source="bplon78fEs0VXEiEB44Z-105" target="bplon78fEs0VXEiEB44Z-107" edge="1">
          <mxGeometry relative="1" as="geometry" />
        </mxCell>
        <mxCell id="bplon78fEs0VXEiEB44Z-105" value="Does this game fit GPNW&#39;s values?" style="rhombus;whiteSpace=wrap;html=1;" parent="bplon78fEs0VXEiEB44Z-94" vertex="1">
          <mxGeometry x="220" y="50" width="120" height="120" as="geometry" />
        </mxCell>
        <mxCell id="bplon78fEs0VXEiEB44Z-107" value="Handle situation appropriately" style="rounded=1;whiteSpace=wrap;html=1;" parent="bplon78fEs0VXEiEB44Z-94" vertex="1">
          <mxGeometry x="50" y="80" width="120" height="60" as="geometry" />
        </mxCell>
        <mxCell id="bplon78fEs0VXEiEB44Z-118" value="No" style="edgeStyle=orthogonalEdgeStyle;rounded=0;orthogonalLoop=1;jettySize=auto;html=1;" parent="bplon78fEs0VXEiEB44Z-94" source="bplon78fEs0VXEiEB44Z-108" target="bplon78fEs0VXEiEB44Z-111" edge="1">
          <mxGeometry relative="1" as="geometry" />
        </mxCell>
        <mxCell id="bplon78fEs0VXEiEB44Z-125" style="edgeStyle=orthogonalEdgeStyle;rounded=0;orthogonalLoop=1;jettySize=auto;html=1;" parent="bplon78fEs0VXEiEB44Z-94" source="bplon78fEs0VXEiEB44Z-108" target="bplon78fEs0VXEiEB44Z-124" edge="1">
          <mxGeometry relative="1" as="geometry">
            <Array as="points">
              <mxPoint x="460" y="600" />
            </Array>
          </mxGeometry>
        </mxCell>
        <mxCell id="bplon78fEs0VXEiEB44Z-129" value="Yes" style="edgeLabel;html=1;align=center;verticalAlign=middle;resizable=0;points=[];" parent="bplon78fEs0VXEiEB44Z-125" vertex="1" connectable="0">
          <mxGeometry x="-0.757" y="-4" relative="1" as="geometry">
            <mxPoint as="offset" />
          </mxGeometry>
        </mxCell>
        <mxCell id="bplon78fEs0VXEiEB44Z-108" value="Does the listing visually work?" style="rhombus;whiteSpace=wrap;html=1;" parent="bplon78fEs0VXEiEB44Z-94" vertex="1">
          <mxGeometry x="400" y="220" width="120" height="120" as="geometry" />
        </mxCell>
        <mxCell id="bplon78fEs0VXEiEB44Z-126" style="edgeStyle=orthogonalEdgeStyle;rounded=0;orthogonalLoop=1;jettySize=auto;html=1;" parent="bplon78fEs0VXEiEB44Z-94" source="bplon78fEs0VXEiEB44Z-109" target="bplon78fEs0VXEiEB44Z-124" edge="1">
          <mxGeometry relative="1" as="geometry" />
        </mxCell>
        <mxCell id="bplon78fEs0VXEiEB44Z-109" value="Contact GM/Facilitator for revisions" style="rounded=1;whiteSpace=wrap;html=1;" parent="bplon78fEs0VXEiEB44Z-94" vertex="1">
          <mxGeometry x="220" y="420" width="120" height="60" as="geometry" />
        </mxCell>
        <mxCell id="bplon78fEs0VXEiEB44Z-110" style="edgeStyle=orthogonalEdgeStyle;rounded=0;orthogonalLoop=1;jettySize=auto;html=1;exitX=0.75;exitY=1;exitDx=0;exitDy=0;entryX=0.667;entryY=1;entryDx=0;entryDy=0;entryPerimeter=0;" parent="bplon78fEs0VXEiEB44Z-94" source="bplon78fEs0VXEiEB44Z-109" target="bplon78fEs0VXEiEB44Z-109" edge="1">
          <mxGeometry relative="1" as="geometry" />
        </mxCell>
        <mxCell id="bplon78fEs0VXEiEB44Z-119" style="edgeStyle=orthogonalEdgeStyle;rounded=0;orthogonalLoop=1;jettySize=auto;html=1;" parent="bplon78fEs0VXEiEB44Z-94" source="bplon78fEs0VXEiEB44Z-111" target="bplon78fEs0VXEiEB44Z-113" edge="1">
          <mxGeometry relative="1" as="geometry">
            <Array as="points">
              <mxPoint x="120" y="280" />
            </Array>
          </mxGeometry>
        </mxCell>
        <mxCell id="bplon78fEs0VXEiEB44Z-128" value="No" style="edgeLabel;html=1;align=center;verticalAlign=middle;resizable=0;points=[];" parent="bplon78fEs0VXEiEB44Z-119" vertex="1" connectable="0">
          <mxGeometry x="-0.6485" y="2" relative="1" as="geometry">
            <mxPoint as="offset" />
          </mxGeometry>
        </mxCell>
        <mxCell id="bplon78fEs0VXEiEB44Z-121" value="Yes" style="edgeStyle=orthogonalEdgeStyle;rounded=0;orthogonalLoop=1;jettySize=auto;html=1;" parent="bplon78fEs0VXEiEB44Z-94" source="bplon78fEs0VXEiEB44Z-111" target="bplon78fEs0VXEiEB44Z-109" edge="1">
          <mxGeometry relative="1" as="geometry" />
        </mxCell>
        <mxCell id="bplon78fEs0VXEiEB44Z-111" value="Does problem require contacting GM/Facilitator?" style="rhombus;whiteSpace=wrap;html=1;" parent="bplon78fEs0VXEiEB44Z-94" vertex="1">
          <mxGeometry x="215" y="215" width="130" height="130" as="geometry" />
        </mxCell>
        <mxCell id="bplon78fEs0VXEiEB44Z-127" style="edgeStyle=orthogonalEdgeStyle;rounded=0;orthogonalLoop=1;jettySize=auto;html=1;" parent="bplon78fEs0VXEiEB44Z-94" source="bplon78fEs0VXEiEB44Z-113" target="bplon78fEs0VXEiEB44Z-124" edge="1">
          <mxGeometry relative="1" as="geometry">
            <Array as="points">
              <mxPoint x="120" y="600" />
            </Array>
          </mxGeometry>
        </mxCell>
        <mxCell id="bplon78fEs0VXEiEB44Z-113" value="&lt;div&gt;Edit Listing&lt;/div&gt;" style="rounded=1;whiteSpace=wrap;html=1;" parent="bplon78fEs0VXEiEB44Z-94" vertex="1">
          <mxGeometry x="50" y="345" width="120" height="60" as="geometry" />
        </mxCell>
        <mxCell id="bplon78fEs0VXEiEB44Z-124" value="Mark as Vetted" style="ellipse;whiteSpace=wrap;html=1;aspect=fixed;" parent="bplon78fEs0VXEiEB44Z-94" vertex="1">
          <mxGeometry x="240" y="560" width="80" height="80" as="geometry" />
        </mxCell>
        <mxCell id="bplon78fEs0VXEiEB44Z-130" style="edgeStyle=orthogonalEdgeStyle;rounded=0;orthogonalLoop=1;jettySize=auto;html=1;" parent="bplon78fEs0VXEiEB44Z-94" source="bplon78fEs0VXEiEB44Z-107" target="bplon78fEs0VXEiEB44Z-124" edge="1">
          <mxGeometry relative="1" as="geometry">
            <mxPoint x="150" y="760" as="targetPoint" />
            <Array as="points">
              <mxPoint x="40" y="110" />
              <mxPoint x="40" y="670" />
              <mxPoint x="280" y="670" />
            </Array>
          </mxGeometry>
        </mxCell>
        <mxCell id="bplon78fEs0VXEiEB44Z-136" style="edgeStyle=orthogonalEdgeStyle;rounded=0;orthogonalLoop=1;jettySize=auto;html=1;" parent="bplon78fEs0VXEiEB44Z-5" source="bplon78fEs0VXEiEB44Z-96" target="bplon78fEs0VXEiEB44Z-135" edge="1">
          <mxGeometry relative="1" as="geometry" />
        </mxCell>
        <mxCell id="bplon78fEs0VXEiEB44Z-96" value="Game Scheduling" style="swimlane;horizontal=0;" parent="bplon78fEs0VXEiEB44Z-5" vertex="1">
          <mxGeometry x="30" y="2490" width="530" height="480" as="geometry" />
        </mxCell>
        <mxCell id="bplon78fEs0VXEiEB44Z-100" style="edgeStyle=orthogonalEdgeStyle;rounded=0;orthogonalLoop=1;jettySize=auto;html=1;" parent="bplon78fEs0VXEiEB44Z-96" source="bplon78fEs0VXEiEB44Z-87" target="bplon78fEs0VXEiEB44Z-92" edge="1">
          <mxGeometry relative="1" as="geometry" />
        </mxCell>
        <mxCell id="bplon78fEs0VXEiEB44Z-134" style="edgeStyle=orthogonalEdgeStyle;rounded=0;orthogonalLoop=1;jettySize=auto;html=1;entryX=1;entryY=0.5;entryDx=0;entryDy=0;" parent="bplon78fEs0VXEiEB44Z-96" source="bplon78fEs0VXEiEB44Z-87" target="bplon78fEs0VXEiEB44Z-133" edge="1">
          <mxGeometry relative="1" as="geometry">
            <mxPoint x="440" y="260" as="targetPoint" />
            <Array as="points">
              <mxPoint x="430" y="60" />
              <mxPoint x="430" y="360" />
            </Array>
          </mxGeometry>
        </mxCell>
        <mxCell id="bplon78fEs0VXEiEB44Z-87" value="Count requested games for session (time slot)" style="rounded=1;whiteSpace=wrap;html=1;" parent="bplon78fEs0VXEiEB44Z-96" vertex="1">
          <mxGeometry x="250" y="30" width="120" height="60" as="geometry" />
        </mxCell>
        <mxCell id="bplon78fEs0VXEiEB44Z-101" style="edgeStyle=orthogonalEdgeStyle;rounded=0;orthogonalLoop=1;jettySize=auto;html=1;" parent="bplon78fEs0VXEiEB44Z-96" source="bplon78fEs0VXEiEB44Z-92" target="bplon78fEs0VXEiEB44Z-98" edge="1">
          <mxGeometry relative="1" as="geometry" />
        </mxCell>
        <mxCell id="bplon78fEs0VXEiEB44Z-104" value="Yes" style="edgeLabel;html=1;align=center;verticalAlign=middle;resizable=0;points=[];" parent="bplon78fEs0VXEiEB44Z-101" vertex="1" connectable="0">
          <mxGeometry x="-0.0222" y="-3" relative="1" as="geometry">
            <mxPoint as="offset" />
          </mxGeometry>
        </mxCell>
        <mxCell id="bplon78fEs0VXEiEB44Z-102" value="No" style="edgeStyle=orthogonalEdgeStyle;rounded=0;orthogonalLoop=1;jettySize=auto;html=1;" parent="bplon78fEs0VXEiEB44Z-96" source="bplon78fEs0VXEiEB44Z-92" target="bplon78fEs0VXEiEB44Z-133" edge="1">
          <mxGeometry relative="1" as="geometry">
            <mxPoint x="240" y="300" as="targetPoint" />
            <Array as="points" />
          </mxGeometry>
        </mxCell>
        <mxCell id="bplon78fEs0VXEiEB44Z-92" value="Too many games in session?" style="rhombus;whiteSpace=wrap;html=1;" parent="bplon78fEs0VXEiEB44Z-96" vertex="1">
          <mxGeometry x="270" y="150" width="80" height="80" as="geometry" />
        </mxCell>
        <mxCell id="bplon78fEs0VXEiEB44Z-98" value="Contact GMs to reschedule" style="rounded=1;whiteSpace=wrap;html=1;" parent="bplon78fEs0VXEiEB44Z-96" vertex="1">
          <mxGeometry x="60" y="160" width="120" height="60" as="geometry" />
        </mxCell>
        <mxCell id="bplon78fEs0VXEiEB44Z-133" value="Publish Game" style="ellipse;whiteSpace=wrap;html=1;aspect=fixed;" parent="bplon78fEs0VXEiEB44Z-96" vertex="1">
          <mxGeometry x="270" y="320" width="80" height="80" as="geometry" />
        </mxCell>
        <mxCell id="bplon78fEs0VXEiEB44Z-135" value="Inform GM/Facilitator that game is vetted and published" style="rounded=1;whiteSpace=wrap;html=1;" parent="bplon78fEs0VXEiEB44Z-5" vertex="1">
          <mxGeometry x="235" y="3050" width="120" height="60" as="geometry" />
        </mxCell>
        <mxCell id="bplon78fEs0VXEiEB44Z-90" style="edgeStyle=orthogonalEdgeStyle;rounded=0;orthogonalLoop=1;jettySize=auto;html=1;" parent="bplon78fEs0VXEiEB44Z-3" source="bplon78fEs0VXEiEB44Z-64" target="bplon78fEs0VXEiEB44Z-89" edge="1">
          <mxGeometry relative="1" as="geometry" />
        </mxCell>
        <mxCell id="bplon78fEs0VXEiEB44Z-131" style="edgeStyle=orthogonalEdgeStyle;rounded=0;orthogonalLoop=1;jettySize=auto;html=1;" parent="bplon78fEs0VXEiEB44Z-1" source="bplon78fEs0VXEiEB44Z-94" edge="1">
          <mxGeometry relative="1" as="geometry">
            <mxPoint x="935" y="2650" as="targetPoint" />
          </mxGeometry>
        </mxCell>
        <mxCell id="bplon78fEs0VXEiEB44Z-132" style="edgeStyle=orthogonalEdgeStyle;rounded=0;orthogonalLoop=1;jettySize=auto;html=1;" parent="bplon78fEs0VXEiEB44Z-1" source="bplon78fEs0VXEiEB44Z-89" edge="1">
          <mxGeometry relative="1" as="geometry">
            <mxPoint x="950" y="1870" as="targetPoint" />
          </mxGeometry>
        </mxCell>
      </root>
    </mxGraphModel>
  </diagram>
</mxfile>
